<?xml version="1.0" encoding="UTF-8"?>
<svg xmlns="http://www.w3.org/2000/svg" xmlns:xlink="http://www.w3.org/1999/xlink" width="21pt" height="20pt" viewBox="0 0 21 20" version="1.1">
<g id="surface1">
<path style=" stroke:none;fill-rule:nonzero;fill:rgb(55.294118%,59.607843%,69.411765%);fill-opacity:1;" d="M 18.480469 8.667969 L 18.480469 8.171875 C 18.480469 6.714844 17.371094 5.523438 15.925781 5.523438 L 11.128906 5.523438 L 11.128906 2.941406 C 11.761719 2.691406 12.03125 2.160156 12.03125 1.546875 C 12.03125 0.695312 11.355469 0 10.507812 0 C 9.664062 0 8.929688 0.695312 8.929688 1.546875 C 8.929688 2.160156 9.34375 2.691406 9.765625 2.941406 L 9.765625 5.523438 L 5.117188 5.523438 C 3.671875 5.523438 2.414062 6.714844 2.414062 8.171875 L 2.414062 8.667969 C 1.15625 8.753906 0 9.902344 0 11.304688 L 0 13.371094 C 0 14.773438 1.15625 15.921875 2.414062 16.007812 L 2.414062 16.09375 C 2.414062 17.550781 3.671875 18.753906 5.117188 18.753906 L 6.824219 18.753906 L 6.824219 17.480469 L 5.117188 17.480469 C 4.394531 17.480469 3.78125 16.820312 3.78125 16.09375 L 3.78125 8.171875 C 3.78125 7.445312 4.394531 6.898438 5.117188 6.898438 L 15.925781 6.898438 C 16.644531 6.898438 17.324219 7.445312 17.324219 8.171875 L 17.324219 16.09375 C 17.324219 16.820312 16.644531 17.480469 15.925781 17.480469 L 12.082031 17.480469 C 11.796875 16.847656 11.203125 16.46875 10.519531 16.46875 C 9.558594 16.46875 8.773438 17.242188 8.773438 18.214844 C 8.773438 19.1875 9.558594 19.972656 10.519531 19.972656 C 11.296875 19.972656 11.957031 19.492188 12.183594 18.753906 L 15.925781 18.753906 C 17.371094 18.753906 18.480469 17.550781 18.480469 16.09375 L 18.480469 16.007812 C 19.949219 15.921875 21 14.773438 21 13.371094 L 21 11.304688 C 21 9.902344 19.949219 8.753906 18.480469 8.667969 Z M 18.480469 10 C 19.214844 10.082031 19.738281 10.636719 19.738281 11.304688 L 19.738281 13.371094 C 19.738281 14.039062 19.214844 14.59375 18.480469 14.675781 Z M 10.519531 1.21875 C 10.699219 1.21875 10.84375 1.367188 10.84375 1.546875 C 10.84375 1.726562 10.699219 1.871094 10.519531 1.871094 C 10.34375 1.871094 10.195312 1.726562 10.195312 1.546875 C 10.195312 1.367188 10.34375 1.21875 10.519531 1.21875 Z M 1.15625 13.371094 L 1.15625 11.304688 C 1.15625 10.636719 1.890625 10.082031 2.414062 10 L 2.414062 14.675781 C 1.890625 14.59375 1.15625 14.039062 1.15625 13.371094 Z M 10.519531 18.824219 C 10.175781 18.824219 9.898438 18.542969 9.898438 18.195312 C 9.898438 17.851562 10.175781 17.570312 10.519531 17.570312 C 10.863281 17.570312 11.144531 17.851562 11.144531 18.195312 C 11.144531 18.542969 10.863281 18.824219 10.519531 18.824219 Z M 10.519531 18.824219 "/>
<path style=" stroke:none;fill-rule:nonzero;fill:rgb(55.294118%,59.607843%,69.411765%);fill-opacity:1;" d="M 13.636719 14.359375 C 13.636719 13.996094 13.339844 13.671875 12.976562 13.671875 L 8.0625 13.671875 C 7.703125 13.671875 7.40625 13.996094 7.40625 14.359375 C 7.40625 14.726562 7.703125 15.046875 8.0625 15.046875 L 12.976562 15.046875 C 13.339844 15.046875 13.636719 14.726562 13.636719 14.359375 Z M 13.636719 14.359375 "/>
<path style=" stroke:none;fill-rule:nonzero;fill:rgb(55.294118%,59.607843%,69.411765%);fill-opacity:1;" d="M 7.453125 9.886719 C 7.453125 9.519531 7.136719 9.222656 6.773438 9.222656 C 6.410156 9.222656 6.089844 9.519531 6.089844 9.886719 L 6.089844 12.015625 C 6.089844 12.382812 6.410156 12.679688 6.773438 12.679688 C 7.136719 12.679688 7.453125 12.382812 7.453125 12.015625 Z M 7.453125 9.886719 "/>
<path style=" stroke:none;fill-rule:nonzero;fill:rgb(55.294118%,59.607843%,69.411765%);fill-opacity:1;" d="M 15.015625 12.015625 L 15.015625 9.886719 C 15.015625 9.519531 14.75 9.222656 14.386719 9.222656 C 14.023438 9.222656 13.753906 9.519531 13.753906 9.886719 L 13.753906 12.015625 C 13.753906 12.382812 14.023438 12.679688 14.386719 12.679688 C 14.75 12.679688 15.015625 12.382812 15.015625 12.015625 Z M 15.015625 12.015625 "/>
</g>
</svg>
