<?xml version="1.0" encoding="UTF-8"?>
<svg xmlns="http://www.w3.org/2000/svg" xmlns:xlink="http://www.w3.org/1999/xlink" width="20pt" height="20pt" viewBox="0 0 20 20" version="1.1">
<g id="surface1">
<path style=" stroke:none;fill-rule:nonzero;fill:rgb(55.294118%,59.607843%,69.411765%);fill-opacity:1;" d="M 6 12.390625 L 6 14.34375 C 6 14.726562 6.269531 15.035156 6.648438 15.035156 C 7.03125 15.035156 7.300781 14.726562 7.300781 14.34375 L 7.300781 12.390625 C 7.300781 12.011719 7.03125 11.699219 6.648438 11.699219 C 6.269531 11.699219 6 12.011719 6 12.390625 Z M 6 12.390625 "/>
<path style=" stroke:none;fill-rule:nonzero;fill:rgb(55.294118%,59.607843%,69.411765%);fill-opacity:1;" d="M 12.699219 15.035156 C 13.082031 15.035156 13.398438 14.726562 13.398438 14.34375 L 13.398438 12.390625 C 13.398438 12.011719 13.082031 11.699219 12.699219 11.699219 C 12.320312 11.699219 12 12.011719 12 12.390625 L 12 14.34375 C 12 14.726562 12.320312 15.035156 12.699219 15.035156 Z M 12.699219 15.035156 "/>
<path style=" stroke:none;fill-rule:nonzero;fill:rgb(55.294118%,59.607843%,69.411765%);fill-opacity:1;" d="M 16.53125 3.101562 L 10.511719 3.101562 C 10.152344 3.101562 9.863281 3.390625 9.863281 3.75 C 9.863281 4.109375 10.152344 4.398438 10.511719 4.398438 L 16.53125 4.398438 C 16.890625 4.398438 17.183594 4.109375 17.183594 3.75 C 17.183594 3.390625 16.890625 3.101562 16.53125 3.101562 Z M 16.53125 3.101562 "/>
<path style=" stroke:none;fill-rule:nonzero;fill:rgb(55.294118%,59.607843%,69.411765%);fill-opacity:1;" d="M 14.527344 5.101562 L 10.511719 5.101562 C 10.152344 5.101562 9.863281 5.390625 9.863281 5.75 C 9.863281 6.109375 10.152344 6.398438 10.511719 6.398438 L 14.527344 6.398438 C 14.882812 6.398438 15.175781 6.109375 15.175781 5.75 C 15.175781 5.390625 14.882812 5.101562 14.527344 5.101562 Z M 14.527344 5.101562 "/>
<path style=" stroke:none;fill-rule:nonzero;fill:rgb(55.294118%,59.607843%,69.411765%);fill-opacity:1;" d="M 17.796875 9.199219 C 18.949219 9.199219 20 8.085938 20 6.859375 L 20 2.066406 C 20 0.90625 19.03125 0 17.796875 0 L 8.773438 0 C 7.589844 0 6.699219 0.886719 6.699219 2.066406 L 6.699219 6.699219 C 5.769531 6.707031 4.898438 6.949219 4.101562 7.363281 L 4.101562 5.179688 C 4.601562 4.949219 4.875 4.488281 4.875 3.957031 C 4.875 3.195312 4.269531 2.578125 3.507812 2.578125 C 2.75 2.578125 2.140625 3.195312 2.140625 3.957031 C 2.140625 4.488281 2.5 4.949219 2.898438 5.179688 L 2.898438 8.332031 C 2.398438 8.910156 1.976562 9.609375 1.773438 10.382812 C 0.746094 10.632812 0 11.5625 0 12.667969 L 0 14.503906 C 0 15.707031 0.886719 16.699219 2.050781 16.839844 C 2.859375 18.660156 4.695312 20 6.742188 20 L 12.757812 20 C 14.761719 20 16.429688 18.703125 17.167969 16.855469 C 18.457031 16.847656 19.398438 15.796875 19.398438 14.503906 L 19.398438 12.667969 C 19.398438 11.46875 18.605469 10.480469 17.449219 10.332031 C 17.367188 9.902344 17.285156 9.535156 17.089844 9.199219 Z M 18.699219 6.859375 C 18.699219 7.316406 18.277344 7.898438 17.796875 7.898438 L 10.277344 7.898438 C 10.261719 7.898438 10.222656 7.902344 10.195312 7.902344 C 10.144531 7.898438 10.097656 7.898438 10.027344 7.898438 C 9.941406 7.898438 9.859375 7.921875 9.789062 7.96875 L 8.824219 8.460938 L 8 8.859375 L 8 2.066406 C 8 1.601562 8.304688 1.300781 8.773438 1.300781 L 17.800781 1.300781 C 18.234375 1.300781 18.699219 1.570312 18.699219 2.066406 Z M 6.925781 10.503906 C 6.992188 10.566406 7.074219 10.59375 7.136719 10.613281 C 7.152344 10.617188 7.164062 10.621094 7.175781 10.628906 C 7.269531 10.660156 7.359375 10.691406 7.457031 10.691406 C 7.53125 10.691406 7.605469 10.671875 7.667969 10.636719 L 10.492188 9.199219 L 15.347656 9.199219 C 15.921875 9.734375 16.199219 10.5 16.199219 11.539062 L 16.199219 14.859375 C 16.199219 16.921875 14.65625 18.601562 12.757812 18.601562 L 6.742188 18.601562 C 4.746094 18.601562 3 16.851562 3 14.859375 L 3 11.539062 C 3 9.65625 4.65625 8.121094 6.699219 8.101562 L 6.699219 10.023438 C 6.699219 10.285156 6.800781 10.378906 6.925781 10.503906 Z M 3.523438 4.246094 C 3.359375 4.246094 3.230469 4.117188 3.230469 3.957031 C 3.230469 3.792969 3.363281 3.664062 3.523438 3.664062 C 3.683594 3.664062 3.8125 3.792969 3.8125 3.957031 C 3.8125 4.117188 3.683594 4.246094 3.523438 4.246094 Z M 1.621094 15.464844 C 1.316406 15.253906 1.101562 14.902344 1.101562 14.503906 L 1.101562 12.667969 C 1.101562 12.289062 1.320312 11.949219 1.601562 11.738281 L 1.601562 14.859375 C 1.601562 15.0625 1.597656 15.265625 1.621094 15.464844 Z M 17.601562 14.859375 L 17.601562 11.566406 C 18.050781 11.730469 18.199219 12.160156 18.199219 12.667969 L 18.199219 14.503906 C 18.199219 15.03125 18.015625 15.476562 17.535156 15.625 C 17.570312 15.375 17.601562 15.121094 17.601562 14.859375 Z M 17.601562 14.859375 "/>
</g>
</svg>
