<?xml version="1.0" encoding="UTF-8"?>
<svg xmlns="http://www.w3.org/2000/svg" xmlns:xlink="http://www.w3.org/1999/xlink" width="21pt" height="20pt" viewBox="0 0 21 20" version="1.1">
<g id="surface1">
<path style=" stroke:none;fill-rule:nonzero;fill:rgb(55.294118%,59.607843%,69.411765%);fill-opacity:1;" d="M 6.246094 12.25 C 5.886719 12.25 5.566406 12.546875 5.566406 12.90625 L 5.566406 15.296875 C 5.566406 15.660156 5.886719 15.953125 6.246094 15.953125 C 6.609375 15.953125 6.929688 15.660156 6.929688 15.296875 L 6.929688 12.90625 C 6.929688 12.546875 6.609375 12.25 6.246094 12.25 Z M 6.246094 12.25 "/>
<path style=" stroke:none;fill-rule:nonzero;fill:rgb(55.294118%,59.607843%,69.411765%);fill-opacity:1;" d="M 13.28125 12.25 C 12.921875 12.25 12.601562 12.546875 12.601562 12.90625 L 12.601562 15.296875 C 12.601562 15.660156 12.921875 15.953125 13.28125 15.953125 C 13.644531 15.953125 13.964844 15.660156 13.964844 15.296875 L 13.964844 12.90625 C 13.964844 12.546875 13.644531 12.25 13.28125 12.25 Z M 13.28125 12.25 "/>
<path style=" stroke:none;fill-rule:nonzero;fill:rgb(55.294118%,59.607843%,69.411765%);fill-opacity:1;" d="M 17.484375 3.261719 L 11.195312 3.261719 C 10.820312 3.261719 10.515625 3.570312 10.515625 3.949219 C 10.515625 4.324219 10.820312 4.632812 11.195312 4.632812 L 17.484375 4.632812 C 17.859375 4.632812 18.164062 4.324219 18.164062 3.949219 C 18.164062 3.570312 17.859375 3.261719 17.484375 3.261719 Z M 17.484375 3.261719 "/>
<path style=" stroke:none;fill-rule:nonzero;fill:rgb(55.294118%,59.607843%,69.411765%);fill-opacity:1;" d="M 15.386719 5.367188 L 11.195312 5.367188 C 10.820312 5.367188 10.515625 5.675781 10.515625 6.050781 C 10.515625 6.429688 10.820312 6.738281 11.195312 6.738281 L 15.386719 6.738281 C 15.761719 6.738281 16.066406 6.429688 16.066406 6.050781 C 16.066406 5.675781 15.761719 5.367188 15.386719 5.367188 Z M 15.386719 5.367188 "/>
<path style=" stroke:none;fill-rule:nonzero;fill:rgb(55.294118%,59.607843%,69.411765%);fill-opacity:1;" d="M 18.808594 0 L 9.375 0 C 8.097656 0 7.140625 1.402344 7.140625 2.609375 L 7.140625 7.15625 L 4.742188 7.15625 C 4.625 7.15625 4.515625 7.125 4.410156 7.136719 L 4.410156 4.832031 C 4.933594 4.59375 5.1875 4.109375 5.1875 3.550781 C 5.1875 2.753906 4.539062 2.109375 3.746094 2.109375 C 2.953125 2.109375 2.335938 2.753906 2.335938 3.550781 C 2.335938 4.109375 2.625 4.59375 3.148438 4.832031 L 3.148438 7.519531 C 3.148438 7.542969 3.125 7.566406 3.128906 7.589844 C 2.453125 8.03125 1.996094 8.742188 1.996094 9.558594 L 1.996094 10.34375 C 0.839844 10.570312 0 11.566406 0 12.761719 L 0 14.6875 C 0 15.882812 0.839844 16.882812 1.996094 17.105469 L 1.996094 17.214844 C 1.996094 18.671875 3.300781 20 4.742188 20 L 15.054688 20 C 16.429688 20 17.535156 18.75 17.535156 17.214844 L 17.535156 17.144531 C 18.796875 17.0625 19.84375 15.992188 19.84375 14.6875 L 19.84375 12.761719 C 19.84375 11.457031 18.796875 10.386719 17.535156 10.304688 L 17.535156 9.578125 L 18.808594 9.578125 C 20.117188 9.578125 21 8.828125 21 7.628906 L 21 2.609375 C 21 1.375 20.0625 0 18.808594 0 Z M 18.585938 12.761719 L 18.585938 14.6875 C 18.585938 15.308594 18.164062 15.824219 17.535156 15.902344 L 17.535156 11.546875 C 18.164062 11.625 18.585938 12.140625 18.585938 12.761719 Z M 15.054688 18.738281 L 4.742188 18.738281 C 4.011719 18.738281 3.253906 17.957031 3.253906 17.214844 L 3.253906 9.558594 C 3.253906 8.828125 4.019531 8.421875 4.742188 8.421875 L 7.140625 8.421875 L 7.140625 10.855469 C 7.140625 11.121094 7.21875 11.277344 7.457031 11.386719 C 7.546875 11.429688 7.640625 11.453125 7.738281 11.453125 C 7.902344 11.453125 8.113281 11.328125 8.230469 11.234375 L 11.179688 9.578125 L 16.171875 9.578125 L 16.171875 17.214844 C 16.171875 17.964844 15.765625 18.738281 15.054688 18.738281 Z M 10.949219 8.316406 C 10.804688 8.316406 10.6875 8.351562 10.550781 8.449219 C 10.515625 8.472656 10.472656 8.488281 10.433594 8.515625 L 9.390625 9.132812 L 8.503906 9.617188 L 8.503906 2.609375 C 8.503906 2.074219 8.914062 1.367188 9.375 1.367188 L 18.808594 1.367188 C 19.285156 1.367188 19.636719 2.117188 19.636719 2.609375 L 19.636719 7.628906 C 19.636719 7.789062 19.640625 8.316406 18.808594 8.316406 Z M 3.742188 3.855469 C 3.574219 3.855469 3.4375 3.71875 3.4375 3.550781 C 3.4375 3.382812 3.574219 3.246094 3.742188 3.246094 C 3.910156 3.246094 4.046875 3.382812 4.046875 3.550781 C 4.046875 3.71875 3.910156 3.855469 3.742188 3.855469 Z M 1.996094 15.816406 C 1.574219 15.628906 1.261719 15.195312 1.261719 14.6875 L 1.261719 12.761719 C 1.261719 12.253906 1.574219 11.820312 1.996094 11.632812 Z M 1.996094 15.816406 "/>
</g>
</svg>
